# xmcd CD database file
#
# Track frame offsets:
#	150
#	10722
#	22620
#	33072
#	52267
#	62620
#	78485
#	96687
#	115342
#	127642
#	148762
#	161480
#	176315
#	186580
#	196912
#	210920
#
# Disc length: 3036 seconds
#
# Revision: 0
# Processed by: cddbd v1.4PL0 Copyright (c) Steve Scherf et al.
# Submitted via: CDex 1.40Release
#
DISCID=cc0bda10
DTITLE=Jonny Hill - Der König der Landstraße
DYEAR=1900
DGENRE=Country
TTITLE0=König der Landstraße
TTITLE1=Ich komm` nicht los von dir
TTITLE2=Heute Nacht, da brauch` ich dich
TTITLE3=Kinder, alte Hunde und junger herber Wein
TTITLE4=Glücklichsein mit dir allein
TTITLE5=Mein Leben mit dir
TTITLE6=Bis der letzte Fluß versiegt
TTITLE7=Der Haus-Song
TTITLE8=Freunde
TTITLE9=Papillon
TTITLE10=Green Green Grass Of Home
TTITLE11=Ich fahr` Taxi
TTITLE12=Wenn ich zu meiner Liebsten greh`
TTITLE13=Komm in meiner Welt
TTITLE14=Laß uns auseinander geh`n 
TTITLE15=Der letzte Drink
EXTD=ID3G: 2
EXTT0=
EXTT1=
EXTT2=
EXTT3=
EXTT4=
EXTT5=
EXTT6=
EXTT7=
EXTT8=
EXTT9=
EXTT10=
EXTT11=
EXTT12=
EXTT13=
EXTT14=
EXTT15=
PLAYORDER=
